<svg xmlns="http://www.w3.org/2000/svg" viewBox="0 0 1920 300" preserveAspectRatio="none">
  <rect width="1920" height="300" fill="#fafafa" />
  <path d="M 0 300 L 0 0 Q 8 0 12 0 Q 16 0 20 0 Q 24 0 28 0 Q 32 0 36 0 Q 40 0 44 0 Q 48 0 52 0 Q 56 0 60 0 Q 64 0 68 0 Q 72 0 76 0 Q 80 0 84 0 Q 88 0 92 0 Q 96 0 100 0 Q 104 0 108 0 Q 112 0 116 0 Q 120 0 124 0 Q 128 0 132 0 Q 136 0 140 0 Q 144 0 148 0 Q 152 0 156 0 Q 160 0 164 0 Q 168 0 172 0 Q 176 0 180 0 Q 184 0 188 0 Q 192 0 196 0 Q 200 0 204 0 Q 208 0 212 0 Q 216 0 220 0 Q 224 0 228 0 Q 232 0 236 0 Q 240 0 244 0 Q 248 0 252 0 Q 256 0 260 0 Q 264 0 268 0 Q 272 0 276 0 Q 280 0 284 0 Q 288 0 292 0 Q 296 0 300 0 Q 304 0 308 0 Q 312 0 316 0 Q 320 0 324 0 Q 328 0 332 0 Q 336 0 340 0 Q 344 0 348 0 Q 352 0 356 0 Q 360 0 364 0 Q 368 0 372 0 Q 376 0 380 0 Q 384 0 388 0 Q 392 0 396 0 Q 400 0 404 0 Q 408 0 412 0 Q 416 0 420 0 Q 424 0 428 0 Q 432 0 436 0 Q 440 0 444 0 Q 448 0 452 0 Q 456 0 460 0 Q 464 0 468 0 Q 472 0 476 0 Q 480 0 484 0 Q 488 0 492 0 Q 496 0 500 0 Q 504 0 508 0 Q 512 0 516 0 Q 520 0 524 0 Q 528 0 532 0 Q 536 0 540 0 Q 544 0 548 0 Q 552 0 556 0 Q 560 0 564 0 Q 568 0 572 0 Q 576 0 580 0 Q 584 0 588 0 Q 592 0 596 0 Q 600 0 604 0 Q 608 0 612 0 Q 616 0 620 0 Q 624 0 628 0 Q 632 0 636 0 Q 640 0 644 0 Q 648 0 652 0 Q 656 0 660 0 Q 664 0 668 0 Q 672 0 676 0 Q 680 0 684 0 Q 688 0 692 0 Q 696 0 700 0 Q 704 0 708 0 Q 712 0 716 0 Q 720 0 724 0 Q 728 0 732 0 Q 736 0 740 0 Q 744 0 748 0 Q 752 0 756 0 Q 760 0 764 0 Q 768 0 772 0 Q 776 0 780 0 Q 784 0 788 0 Q 792 0 796 0 Q 800 0 804 0 Q 808 0 812 0 Q 816 0 820 0 Q 824 0 828 0 Q 832 0 836 0 Q 840 0 844 0 Q 848 0 852 0 Q 856 0 860 0 Q 864 0 868 0 Q 872 0 876 0 Q 880 0 884 0 Q 888 0 892 0 Q 896 0 900 0 Q 904 0 908 0 Q 912 0 916 0 Q 920 0 924 0 Q 928 0 932 0 Q 936 0 940 0 Q 944 0 948 0 Q 952 0 956 0 Q 960 0 964 0 Q 968 0 972 0 Q 976 0 980 0 Q 984 0 988 0 Q 992 0 996 0 Q 1000 0 1004 0 Q 1008 0 1012 0 Q 1016 0 1020 0 Q 1024 0 1028 0 Q 1032 0 1036 0 Q 1040 0 1044 0 Q 1048 0 1052 0 Q 1056 0 1060 0 Q 1064 0 1068 0 Q 1072 0 1076 0 Q 1080 0 1084 0 Q 1088 0 1092 0 Q 1096 0 1100 0 Q 1104 0 1108 0 Q 1112 0 1116 0 Q 1120 0 1124 0 Q 1128 0 1132 0 Q 1136 0 1140 0 Q 1144 0 1148 0 Q 1152 0 1156 0 Q 1160 0 1164 0 Q 1168 0 1172 0 Q 1176 0 1180 0 Q 1184 0 1188 0 Q 1192 0 1196 0 Q 1200 0 1204 0 Q 1208 0 1212 0 Q 1216 0 1220 0 Q 1224 0 1228 0 Q 1232 0 1236 0 Q 1240 0 1244 0 Q 1248 0 1252 0 Q 1256 0 1260 0 Q 1264 0 1268 0 Q 1272 0 1276 0 Q 1280 0 1284 0 Q 1288 0 1292 0 Q 1296 0 1300 0 Q 1304 0 1308 0 Q 1312 0 1316 0 Q 1320 0 1324 0 Q 1328 0 1332 0 Q 1336 0 1340 0 Q 1344 0 1348 0 Q 1352 0 1356 0 Q 1360 0 1364 0 Q 1368 0 1372 0 Q 1376 0 1380 0 Q 1384 0 1388 0 Q 1392 0 1396 0 Q 1400 0 1404 0 Q 1408 0 1412 0 Q 1416 0 1420 0 Q 1424 0 1428 0 Q 1432 0 1436 0 Q 1440 0 1444 0 Q 1448 0 1452 0 Q 1456 0 1460 0 Q 1464 0 1468 0 Q 1472 0 1476 0 Q 1480 0 1484 0 Q 1488 0 1492 0 Q 1496 0 1500 0 Q 1504 0 1508 0 Q 1512 0 1516 0 Q 1520 0 1524 0 Q 1528 0 1532 0 Q 1536 0 1540 0 Q 1544 0 1548 0 Q 1552 0 1556 0 Q 1560 0 1564 0 Q 1568 0 1572 0 Q 1576 0 1580 0 Q 1584 0 1588 0 Q 1592 0 1596 0 Q 1600 0 1604 0 Q 1608 0 1612 0 Q 1616 0 1620 0 Q 1624 0 1628 0 Q 1632 0 1636 0 Q 1640 0 1644 0 Q 1648 0 1652 0 Q 1656 0 1660 0 Q 1664 0 1668 0 Q 1672 0 1676 0 Q 1680 0 1684 0 Q 1688 0 1692 0 Q 1696 0 1700 0 Q 1704 0 1708 0 Q 1712 0 1716 0 Q 1720 0 1724 0 Q 1728 0 1732 0 Q 1736 0 1740 0 Q 1744 0 1748 0 Q 1752 0 1756 0 Q 1760 0 1764 0 Q 1768 0 1772 0 Q 1776 0 1780 0 Q 1784 0 1788 0 Q 1792 0 1796 0 Q 1800 0 1804 0 Q 1808 0 1812 0 Q 1816 0 1820 0 Q 1824 0 1828 0 Q 1832 0 1836 0 Q 1840 0 1844 0 Q 1848 0 1852 0 Q 1856 0 1860 0 Q 1864 0 1868 0 Q 1872 0 1876 0 Q 1880 0 1884 0 Q 1888 0 1892 0 Q 1896 0 1900 0 Q 1904 0 1908 0 Q 1912 0 1916 0 L 1920 0 L 1920 300 Z" fill="#f0eeeb" />
  <path d="M 0 300 L 0 0 Q 8 0 12 0 Q 16 0 20 0 Q 24 0 28 0 Q 32 0 36 0 Q 40 0 44 0 Q 48 0 52 0 Q 56 0 60 0 Q 64 0 68 0 Q 72 0 76 0 Q 80 0 84 0 Q 88 0 92 0 Q 96 0 100 0 Q 104 0 108 0 Q 112 0 116 0 Q 120 0 124 0 Q 128 0 132 0 Q 136 0 140 0 Q 144 0 148 0 Q 152 0 156 0 Q 160 0 164 0 Q 168 0 172 0 Q 176 0 180 0 Q 184 0 188 0 Q 192 0 196 0 Q 200 0 204 0 Q 208 0 212 0 Q 216 0 220 0 Q 224 0 228 0 Q 232 0 236 0 Q 240 0 244 0 Q 248 0 252 0 Q 256 0 260 0 Q 264 0 268 0 Q 272 0 276 0 Q 280 0 284 0 Q 288 0 292 0 Q 296 0 300 0 Q 304 0 308 0 Q 312 0 316 0 Q 320 0 324 0 Q 328 0 332 0 Q 336 0 340 0 Q 344 0 348 0 Q 352 0 356 0 Q 360 0 364 0 Q 368 0 372 0 Q 376 0 380 0 Q 384 0 388 0 Q 392 0 396 0 Q 400 0 404 0 Q 408 0 412 0 Q 416 0 420 0 Q 424 0 428 0 Q 432 0 436 0 Q 440 0 444 0 Q 448 0 452 0 Q 456 0 460 0 Q 464 0 468 0 Q 472 0 476 0 Q 480 0 484 0 Q 488 0 492 0 Q 496 0 500 0 Q 504 0 508 0 Q 512 0 516 0 Q 520 0 524 0 Q 528 0 532 0 Q 536 0 540 0 Q 544 0 548 0 Q 552 0 556 0 Q 560 0 564 0 Q 568 0 572 0 Q 576 0 580 0 Q 584 0 588 0 Q 592 0 596 0 Q 600 0 604 0 Q 608 0 612 0 Q 616 0 620 0 Q 624 0 628 0 Q 632 0 636 0 Q 640 0 644 0 Q 648 0 652 0 Q 656 0 660 0 Q 664 0 668 0 Q 672 0 676 0 Q 680 0 684 0 Q 688 0 692 0 Q 696 0 700 0 Q 704 0 708 0 Q 712 0 716 0 Q 720 0 724 0 Q 728 0 732 0 Q 736 0 740 0 Q 744 0 748 0 Q 752 0 756 0 Q 760 0 764 0 Q 768 0 772 0 Q 776 0 780 0 Q 784 0 788 0 Q 792 0 796 0 Q 800 0 804 0 Q 808 0 812 0 Q 816 0 820 0 Q 824 0 828 0 Q 832 0 836 0 Q 840 0 844 0 Q 848 0 852 0 Q 856 0 860 0 Q 864 0 868 0 Q 872 0 876 0 Q 880 0 884 0 Q 888 0 892 0 Q 896 0 900 0 Q 904 0 908 0 Q 912 0 916 0 Q 920 0 924 0 Q 928 0 932 0 Q 936 0 940 0 Q 944 0 948 0 Q 952 0 956 0 Q 960 0 964 0 Q 968 0 972 0 Q 976 0 980 0 Q 984 0 988 0 Q 992 0 996 0 Q 1000 0 1004 0 Q 1008 0 1012 0 Q 1016 0 1020 0 Q 1024 0 1028 0 Q 1032 0 1036 0 Q 1040 0 1044 0 Q 1048 0 1052 0 Q 1056 0 1060 0 Q 1064 0 1068 0 Q 1072 0 1076 0 Q 1080 0 1084 0 Q 1088 0 1092 0 Q 1096 0 1100 0 Q 1104 0 1108 0 Q 1112 0 1116 0 Q 1120 0 1124 0 Q 1128 0 1132 0 Q 1136 0 1140 0 Q 1144 0 1148 0 Q 1152 0 1156 0 Q 1160 0 1164 0 Q 1168 0 1172 0 Q 1176 0 1180 0 Q 1184 0 1188 0 Q 1192 0 1196 0 Q 1200 0 1204 0 Q 1208 0 1212 0 Q 1216 0 1220 0 Q 1224 0 1228 0 Q 1232 0 1236 0 Q 1240 0 1244 0 Q 1248 0 1252 0 Q 1256 0 1260 0 Q 1264 0 1268 0 Q 1272 0 1276 0 Q 1280 0 1284 0 Q 1288 0 1292 0 Q 1296 0 1300 0 Q 1304 0 1308 0 Q 1312 0 1316 0 Q 1320 0 1324 0 Q 1328 0 1332 0 Q 1336 0 1340 0 Q 1344 0 1348 0 Q 1352 0 1356 0 Q 1360 0 1364 0 Q 1368 0 1372 0 Q 1376 0 1380 0 Q 1384 0 1388 0 Q 1392 0 1396 0 Q 1400 0 1404 0 Q 1408 0 1412 0 Q 1416 0 1420 0 Q 1424 0 1428 0 Q 1432 0 1436 0 Q 1440 0 1444 0 Q 1448 0 1452 0 Q 1456 0 1460 0 Q 1464 0 1468 0 Q 1472 0 1476 0 Q 1480 0 1484 0 Q 1488 0 1492 0 Q 1496 0 1500 0 Q 1504 0 1508 0 Q 1512 0 1516 0 Q 1520 0 1524 0 Q 1528 0 1532 0 Q 1536 0 1540 0 Q 1544 0 1548 0 Q 1552 0 1556 0 Q 1560 0 1564 0 Q 1568 0 1572 0 Q 1576 0 1580 0 Q 1584 0 1588 0 Q 1592 0 1596 0 Q 1600 0 1604 0 Q 1608 0 1612 0 Q 1616 0 1620 0 Q 1624 0 1628 0 Q 1632 0 1636 0 Q 1640 0 1644 0 Q 1648 0 1652 0 Q 1656 0 1660 0 Q 1664 0 1668 0 Q 1672 0 1676 0 Q 1680 0 1684 0 Q 1688 0 1692 0 Q 1696 0 1700 0 Q 1704 0 1708 0 Q 1712 0 1716 0 Q 1720 0 1724 0 Q 1728 0 1732 0 Q 1736 0 1740 0 Q 1744 0 1748 0 Q 1752 0 1756 0 Q 1760 0 1764 0 Q 1768 0 1772 0 Q 1776 0 1780 0 Q 1784 0 1788 0 Q 1792 0 1796 0 Q 1800 0 1804 0 Q 1808 0 1812 0 Q 1816 0 1820 0 Q 1824 0 1828 0 Q 1832 0 1836 0 Q 1840 0 1844 0 Q 1848 0 1852 0 Q 1856 0 1860 0 Q 1864 0 1868 150 Q 1872 300 1876 300 Q 1880 300 1884 300 Q 1888 300 1892 300 Q 1896 300 1900 300 Q 1904 300 1908 300 Q 1912 300 1916 300 L 1920 300 L 1920 300 Z" fill="#e6e3de" />
  <path d="M 0 300 L 0 300 Q 8 300 12 170 Q 16 40 20 20 Q 24 0 28 0 Q 32 0 36 0 Q 40 0 44 0 Q 48 0 52 0 Q 56 0 60 0 Q 64 0 68 0 Q 72 0 76 0 Q 80 0 84 0 Q 88 0 92 0 Q 96 0 100 0 Q 104 0 108 0 Q 112 0 116 0 Q 120 0 124 0 Q 128 0 132 0 Q 136 0 140 0 Q 144 0 148 0 Q 152 0 156 0 Q 160 0 164 0 Q 168 0 172 0 Q 176 0 180 0 Q 184 0 188 0 Q 192 0 196 0 Q 200 0 204 0 Q 208 0 212 0 Q 216 0 220 0 Q 224 0 228 0 Q 232 0 236 0 Q 240 0 244 0 Q 248 0 252 0 Q 256 0 260 0 Q 264 0 268 0 Q 272 0 276 0 Q 280 0 284 0 Q 288 0 292 0 Q 296 0 300 0 Q 304 0 308 0 Q 312 0 316 0 Q 320 0 324 0 Q 328 0 332 0 Q 336 0 340 0 Q 344 0 348 0 Q 352 0 356 0 Q 360 0 364 0 Q 368 0 372 0 Q 376 0 380 0 Q 384 0 388 0 Q 392 0 396 0 Q 400 0 404 0 Q 408 0 412 0 Q 416 0 420 0 Q 424 0 428 0 Q 432 0 436 0 Q 440 0 444 0 Q 448 0 452 0 Q 456 0 460 0 Q 464 0 468 0 Q 472 0 476 0 Q 480 0 484 0 Q 488 0 492 0 Q 496 0 500 0 Q 504 0 508 0 Q 512 0 516 0 Q 520 0 524 0 Q 528 0 532 0 Q 536 0 540 0 Q 544 0 548 0 Q 552 0 556 0 Q 560 0 564 0 Q 568 0 572 0 Q 576 0 580 0 Q 584 0 588 0 Q 592 0 596 0 Q 600 0 604 0 Q 608 0 612 0 Q 616 0 620 0 Q 624 0 628 0 Q 632 0 636 0 Q 640 0 644 0 Q 648 0 652 0 Q 656 0 660 0 Q 664 0 668 0 Q 672 0 676 0 Q 680 0 684 0 Q 688 0 692 0 Q 696 0 700 0 Q 704 0 708 0 Q 712 0 716 0 Q 720 0 724 0 Q 728 0 732 0 Q 736 0 740 0 Q 744 0 748 0 Q 752 0 756 0 Q 760 0 764 0 Q 768 0 772 0 Q 776 0 780 0 Q 784 0 788 0 Q 792 0 796 0 Q 800 0 804 0 Q 808 0 812 0 Q 816 0 820 0 Q 824 0 828 0 Q 832 0 836 0 Q 840 0 844 0 Q 848 0 852 0 Q 856 0 860 0 Q 864 0 868 0 Q 872 0 876 0 Q 880 0 884 0 Q 888 0 892 0 Q 896 0 900 0 Q 904 0 908 0 Q 912 0 916 0 Q 920 0 924 0 Q 928 0 932 0 Q 936 0 940 0 Q 944 0 948 0 Q 952 0 956 0 Q 960 0 964 0 Q 968 0 972 0 Q 976 0 980 0 Q 984 0 988 0 Q 992 0 996 0 Q 1000 0 1004 0 Q 1008 0 1012 0 Q 1016 0 1020 0 Q 1024 0 1028 0 Q 1032 0 1036 0 Q 1040 0 1044 0 Q 1048 0 1052 0 Q 1056 0 1060 0 Q 1064 0 1068 0 Q 1072 0 1076 0 Q 1080 0 1084 0 Q 1088 0 1092 0 Q 1096 0 1100 0 Q 1104 0 1108 0 Q 1112 0 1116 0 Q 1120 0 1124 0 Q 1128 0 1132 0 Q 1136 0 1140 0 Q 1144 0 1148 0 Q 1152 0 1156 0 Q 1160 0 1164 0 Q 1168 0 1172 0 Q 1176 0 1180 0 Q 1184 0 1188 0 Q 1192 0 1196 0 Q 1200 0 1204 0 Q 1208 0 1212 0 Q 1216 0 1220 0 Q 1224 0 1228 0 Q 1232 0 1236 0 Q 1240 0 1244 0 Q 1248 0 1252 0 Q 1256 0 1260 0 Q 1264 0 1268 0 Q 1272 0 1276 0 Q 1280 0 1284 0 Q 1288 0 1292 0 Q 1296 0 1300 0 Q 1304 0 1308 0 Q 1312 0 1316 0 Q 1320 0 1324 0 Q 1328 0 1332 0 Q 1336 0 1340 0 Q 1344 0 1348 0 Q 1352 0 1356 0 Q 1360 0 1364 0 Q 1368 0 1372 0 Q 1376 0 1380 0 Q 1384 0 1388 0 Q 1392 0 1396 0 Q 1400 0 1404 0 Q 1408 0 1412 0 Q 1416 0 1420 0 Q 1424 0 1428 0 Q 1432 0 1436 0 Q 1440 0 1444 0 Q 1448 0 1452 0 Q 1456 0 1460 0 Q 1464 0 1468 0 Q 1472 0 1476 0 Q 1480 0 1484 0 Q 1488 0 1492 0 Q 1496 0 1500 0 Q 1504 0 1508 0 Q 1512 0 1516 0 Q 1520 0 1524 0 Q 1528 0 1532 0 Q 1536 0 1540 0 Q 1544 0 1548 0 Q 1552 0 1556 0 Q 1560 0 1564 0 Q 1568 0 1572 0 Q 1576 0 1580 0 Q 1584 0 1588 0 Q 1592 0 1596 0 Q 1600 0 1604 0 Q 1608 0 1612 0 Q 1616 0 1620 0 Q 1624 0 1628 0 Q 1632 0 1636 0 Q 1640 0 1644 0 Q 1648 0 1652 0 Q 1656 0 1660 0 Q 1664 0 1668 0 Q 1672 0 1676 0 Q 1680 0 1684 0 Q 1688 0 1692 0 Q 1696 0 1700 0 Q 1704 0 1708 0 Q 1712 0 1716 0 Q 1720 0 1724 0 Q 1728 0 1732 0 Q 1736 0 1740 0 Q 1744 0 1748 0 Q 1752 0 1756 0 Q 1760 0 1764 0 Q 1768 0 1772 0 Q 1776 0 1780 0 Q 1784 0 1788 0 Q 1792 0 1796 0 Q 1800 0 1804 150 Q 1808 300 1812 300 Q 1816 300 1820 300 Q 1824 300 1828 300 Q 1832 300 1836 300 Q 1840 300 1844 300 Q 1848 300 1852 300 Q 1856 300 1860 300 Q 1864 300 1868 300 Q 1872 300 1876 300 Q 1880 300 1884 300 Q 1888 300 1892 300 Q 1896 300 1900 300 Q 1904 300 1908 300 Q 1912 300 1916 300 L 1920 300 L 1920 300 Z" fill="#dcd8d1" />
  <path d="M 0 300 L 0 300 Q 8 300 12 300 Q 16 300 20 300 Q 24 300 28 300 Q 32 300 36 300 Q 40 300 44 300 Q 48 300 52 300 Q 56 300 60 300 Q 64 300 68 159 Q 72 18 76 9 Q 80 0 84 0 Q 88 0 92 0 Q 96 0 100 0 Q 104 0 108 0 Q 112 0 116 0 Q 120 0 124 0 Q 128 0 132 0 Q 136 0 140 0 Q 144 0 148 0 Q 152 0 156 0 Q 160 0 164 0 Q 168 0 172 0 Q 176 0 180 0 Q 184 0 188 0 Q 192 0 196 0 Q 200 0 204 0 Q 208 0 212 0 Q 216 0 220 0 Q 224 0 228 0 Q 232 0 236 0 Q 240 0 244 0 Q 248 0 252 0 Q 256 0 260 0 Q 264 0 268 0 Q 272 0 276 0 Q 280 0 284 0 Q 288 0 292 0 Q 296 0 300 0 Q 304 0 308 0 Q 312 0 316 0 Q 320 0 324 0 Q 328 0 332 0 Q 336 0 340 0 Q 344 0 348 0 Q 352 0 356 0 Q 360 0 364 0 Q 368 0 372 0 Q 376 0 380 0 Q 384 0 388 0 Q 392 0 396 0 Q 400 0 404 0 Q 408 0 412 0 Q 416 0 420 0 Q 424 0 428 0 Q 432 0 436 0 Q 440 0 444 0 Q 448 0 452 0 Q 456 0 460 0 Q 464 0 468 0 Q 472 0 476 0 Q 480 0 484 0 Q 488 0 492 0 Q 496 0 500 0 Q 504 0 508 0 Q 512 0 516 0 Q 520 0 524 0 Q 528 0 532 0 Q 536 0 540 0 Q 544 0 548 0 Q 552 0 556 0 Q 560 0 564 0 Q 568 0 572 0 Q 576 0 580 0 Q 584 0 588 0 Q 592 0 596 0 Q 600 0 604 0 Q 608 0 612 0 Q 616 0 620 0 Q 624 0 628 0 Q 632 0 636 0 Q 640 0 644 0 Q 648 0 652 0 Q 656 0 660 0 Q 664 0 668 0 Q 672 0 676 0 Q 680 0 684 0 Q 688 0 692 0 Q 696 0 700 0 Q 704 0 708 0 Q 712 0 716 0 Q 720 0 724 0 Q 728 0 732 0 Q 736 0 740 0 Q 744 0 748 0 Q 752 0 756 0 Q 760 0 764 0 Q 768 0 772 0 Q 776 0 780 0 Q 784 0 788 0 Q 792 0 796 0 Q 800 0 804 0 Q 808 0 812 0 Q 816 0 820 0 Q 824 0 828 0 Q 832 0 836 0 Q 840 0 844 0 Q 848 0 852 0 Q 856 0 860 0 Q 864 0 868 0 Q 872 0 876 0 Q 880 0 884 0 Q 888 0 892 0 Q 896 0 900 0 Q 904 0 908 0 Q 912 0 916 0 Q 920 0 924 0 Q 928 0 932 0 Q 936 0 940 0 Q 944 0 948 0 Q 952 0 956 0 Q 960 0 964 0 Q 968 0 972 0 Q 976 0 980 0 Q 984 0 988 0 Q 992 0 996 0 Q 1000 0 1004 0 Q 1008 0 1012 0 Q 1016 0 1020 0 Q 1024 0 1028 0 Q 1032 0 1036 0 Q 1040 0 1044 0 Q 1048 0 1052 0 Q 1056 0 1060 0 Q 1064 0 1068 0 Q 1072 0 1076 0 Q 1080 0 1084 0 Q 1088 0 1092 0 Q 1096 0 1100 0 Q 1104 0 1108 0 Q 1112 0 1116 0 Q 1120 0 1124 0 Q 1128 0 1132 0 Q 1136 0 1140 0 Q 1144 0 1148 0 Q 1152 0 1156 0 Q 1160 0 1164 0 Q 1168 0 1172 0 Q 1176 0 1180 0 Q 1184 0 1188 0 Q 1192 0 1196 0 Q 1200 0 1204 0 Q 1208 0 1212 0 Q 1216 0 1220 0 Q 1224 0 1228 0 Q 1232 0 1236 0 Q 1240 0 1244 0 Q 1248 0 1252 0 Q 1256 0 1260 0 Q 1264 0 1268 0 Q 1272 0 1276 0 Q 1280 0 1284 0 Q 1288 0 1292 0 Q 1296 0 1300 0 Q 1304 0 1308 0 Q 1312 0 1316 0 Q 1320 0 1324 0 Q 1328 0 1332 0 Q 1336 0 1340 0 Q 1344 0 1348 0 Q 1352 0 1356 0 Q 1360 0 1364 0 Q 1368 0 1372 0 Q 1376 0 1380 0 Q 1384 0 1388 0 Q 1392 0 1396 0 Q 1400 0 1404 0 Q 1408 0 1412 0 Q 1416 0 1420 0 Q 1424 0 1428 0 Q 1432 0 1436 0 Q 1440 0 1444 0 Q 1448 0 1452 0 Q 1456 0 1460 0 Q 1464 0 1468 0 Q 1472 0 1476 0 Q 1480 0 1484 0 Q 1488 0 1492 0 Q 1496 0 1500 0 Q 1504 0 1508 0 Q 1512 0 1516 0 Q 1520 0 1524 0 Q 1528 0 1532 0 Q 1536 0 1540 0 Q 1544 0 1548 0 Q 1552 0 1556 0 Q 1560 0 1564 0 Q 1568 0 1572 0 Q 1576 0 1580 0 Q 1584 0 1588 0 Q 1592 0 1596 0 Q 1600 0 1604 0 Q 1608 0 1612 0 Q 1616 0 1620 0 Q 1624 0 1628 0 Q 1632 0 1636 0 Q 1640 0 1644 0 Q 1648 0 1652 0 Q 1656 0 1660 0 Q 1664 0 1668 0 Q 1672 0 1676 0 Q 1680 0 1684 0 Q 1688 0 1692 0 Q 1696 0 1700 0 Q 1704 0 1708 0 Q 1712 0 1716 0 Q 1720 0 1724 0 Q 1728 0 1732 0 Q 1736 0 1740 7 Q 1744 14 1748 157 Q 1752 300 1756 300 Q 1760 300 1764 300 Q 1768 300 1772 300 Q 1776 300 1780 300 Q 1784 300 1788 300 Q 1792 300 1796 300 Q 1800 300 1804 300 Q 1808 300 1812 300 Q 1816 300 1820 300 Q 1824 300 1828 300 Q 1832 300 1836 300 Q 1840 300 1844 300 Q 1848 300 1852 300 Q 1856 300 1860 300 Q 1864 300 1868 300 Q 1872 300 1876 300 Q 1880 300 1884 300 Q 1888 300 1892 300 Q 1896 300 1900 300 Q 1904 300 1908 300 Q 1912 300 1916 300 L 1920 300 L 1920 300 Z" fill="#d2cdc4" />
  <path d="M 0 300 L 0 300 Q 8 300 12 300 Q 16 300 20 300 Q 24 300 28 300 Q 32 300 36 300 Q 40 300 44 300 Q 48 300 52 300 Q 56 300 60 300 Q 64 300 68 300 Q 72 300 76 300 Q 80 300 84 300 Q 88 300 92 300 Q 96 300 100 300 Q 104 300 108 300 Q 112 300 116 162 Q 120 24 124 12 Q 128 0 132 0 Q 136 0 140 0 Q 144 0 148 0 Q 152 0 156 0 Q 160 0 164 0 Q 168 0 172 0 Q 176 0 180 0 Q 184 0 188 0 Q 192 0 196 0 Q 200 0 204 0 Q 208 0 212 0 Q 216 0 220 0 Q 224 0 228 0 Q 232 0 236 0 Q 240 0 244 0 Q 248 0 252 0 Q 256 0 260 0 Q 264 0 268 0 Q 272 0 276 0 Q 280 0 284 0 Q 288 0 292 0 Q 296 0 300 0 Q 304 0 308 0 Q 312 0 316 0 Q 320 0 324 0 Q 328 0 332 0 Q 336 0 340 0 Q 344 0 348 0 Q 352 0 356 0 Q 360 0 364 0 Q 368 0 372 0 Q 376 0 380 0 Q 384 0 388 0 Q 392 0 396 0 Q 400 0 404 0 Q 408 0 412 0 Q 416 0 420 0 Q 424 0 428 0 Q 432 0 436 0 Q 440 0 444 0 Q 448 0 452 0 Q 456 0 460 0 Q 464 0 468 0 Q 472 0 476 0 Q 480 0 484 0 Q 488 0 492 0 Q 496 0 500 0 Q 504 0 508 0 Q 512 0 516 0 Q 520 0 524 0 Q 528 0 532 0 Q 536 0 540 0 Q 544 0 548 0 Q 552 0 556 0 Q 560 0 564 0 Q 568 0 572 0 Q 576 0 580 0 Q 584 0 588 0 Q 592 0 596 0 Q 600 0 604 0 Q 608 0 612 0 Q 616 0 620 0 Q 624 0 628 0 Q 632 0 636 0 Q 640 0 644 0 Q 648 0 652 0 Q 656 0 660 0 Q 664 0 668 0 Q 672 0 676 0 Q 680 0 684 0 Q 688 0 692 0 Q 696 0 700 0 Q 704 0 708 0 Q 712 0 716 0 Q 720 0 724 0 Q 728 0 732 0 Q 736 0 740 0 Q 744 0 748 0 Q 752 0 756 0 Q 760 0 764 0 Q 768 0 772 0 Q 776 0 780 0 Q 784 0 788 0 Q 792 0 796 0 Q 800 0 804 0 Q 808 0 812 0 Q 816 0 820 0 Q 824 0 828 0 Q 832 0 836 0 Q 840 0 844 0 Q 848 0 852 0 Q 856 0 860 0 Q 864 0 868 0 Q 872 0 876 0 Q 880 0 884 0 Q 888 0 892 0 Q 896 0 900 0 Q 904 0 908 0 Q 912 0 916 0 Q 920 0 924 0 Q 928 0 932 0 Q 936 0 940 0 Q 944 0 948 0 Q 952 0 956 0 Q 960 0 964 0 Q 968 0 972 0 Q 976 0 980 0 Q 984 0 988 0 Q 992 0 996 0 Q 1000 0 1004 0 Q 1008 0 1012 0 Q 1016 0 1020 0 Q 1024 0 1028 0 Q 1032 0 1036 0 Q 1040 0 1044 0 Q 1048 0 1052 0 Q 1056 0 1060 0 Q 1064 0 1068 0 Q 1072 0 1076 0 Q 1080 0 1084 0 Q 1088 0 1092 0 Q 1096 0 1100 0 Q 1104 0 1108 0 Q 1112 0 1116 0 Q 1120 0 1124 0 Q 1128 0 1132 0 Q 1136 0 1140 0 Q 1144 0 1148 0 Q 1152 0 1156 0 Q 1160 0 1164 0 Q 1168 0 1172 0 Q 1176 0 1180 0 Q 1184 0 1188 0 Q 1192 0 1196 0 Q 1200 0 1204 0 Q 1208 0 1212 0 Q 1216 0 1220 0 Q 1224 0 1228 0 Q 1232 0 1236 0 Q 1240 0 1244 0 Q 1248 0 1252 0 Q 1256 0 1260 0 Q 1264 0 1268 0 Q 1272 0 1276 0 Q 1280 0 1284 0 Q 1288 0 1292 0 Q 1296 0 1300 0 Q 1304 0 1308 0 Q 1312 0 1316 0 Q 1320 0 1324 0 Q 1328 0 1332 0 Q 1336 0 1340 0 Q 1344 0 1348 0 Q 1352 0 1356 0 Q 1360 0 1364 0 Q 1368 0 1372 0 Q 1376 0 1380 0 Q 1384 0 1388 0 Q 1392 0 1396 0 Q 1400 0 1404 0 Q 1408 0 1412 0 Q 1416 0 1420 0 Q 1424 0 1428 0 Q 1432 0 1436 0 Q 1440 0 1444 0 Q 1448 0 1452 0 Q 1456 0 1460 0 Q 1464 0 1468 0 Q 1472 0 1476 0 Q 1480 0 1484 0 Q 1488 0 1492 0 Q 1496 0 1500 0 Q 1504 0 1508 0 Q 1512 0 1516 0 Q 1520 0 1524 0 Q 1528 0 1532 0 Q 1536 0 1540 0 Q 1544 0 1548 0 Q 1552 0 1556 0 Q 1560 0 1564 0 Q 1568 0 1572 0 Q 1576 0 1580 0 Q 1584 0 1588 0 Q 1592 0 1596 0 Q 1600 0 1604 0 Q 1608 0 1612 0 Q 1616 0 1620 0 Q 1624 0 1628 0 Q 1632 0 1636 0 Q 1640 0 1644 0 Q 1648 0 1652 0 Q 1656 0 1660 0 Q 1664 0 1668 0 Q 1672 0 1676 0 Q 1680 0 1684 12 Q 1688 24 1692 162 Q 1696 300 1700 300 Q 1704 300 1708 300 Q 1712 300 1716 300 Q 1720 300 1724 300 Q 1728 300 1732 300 Q 1736 300 1740 300 Q 1744 300 1748 300 Q 1752 300 1756 300 Q 1760 300 1764 300 Q 1768 300 1772 300 Q 1776 300 1780 300 Q 1784 300 1788 300 Q 1792 300 1796 300 Q 1800 300 1804 300 Q 1808 300 1812 300 Q 1816 300 1820 300 Q 1824 300 1828 300 Q 1832 300 1836 300 Q 1840 300 1844 300 Q 1848 300 1852 300 Q 1856 300 1860 300 Q 1864 300 1868 300 Q 1872 300 1876 300 Q 1880 300 1884 300 Q 1888 300 1892 300 Q 1896 300 1900 300 Q 1904 300 1908 300 Q 1912 300 1916 300 L 1920 300 L 1920 300 Z" fill="#c8c2b7" />
  <path d="M 0 300 L 0 300 Q 8 300 12 300 Q 16 300 20 300 Q 24 300 28 300 Q 32 300 36 300 Q 40 300 44 300 Q 48 300 52 300 Q 56 300 60 300 Q 64 300 68 300 Q 72 300 76 300 Q 80 300 84 300 Q 88 300 92 300 Q 96 300 100 300 Q 104 300 108 300 Q 112 300 116 300 Q 120 300 124 300 Q 128 300 132 300 Q 136 300 140 300 Q 144 300 148 300 Q 152 300 156 300 Q 160 300 164 165 Q 168 30 172 18 Q 176 6 180 3 Q 184 0 188 0 Q 192 0 196 0 Q 200 0 204 0 Q 208 0 212 0 Q 216 0 220 0 Q 224 0 228 0 Q 232 0 236 0 Q 240 0 244 0 Q 248 0 252 0 Q 256 0 260 0 Q 264 0 268 0 Q 272 0 276 0 Q 280 0 284 0 Q 288 0 292 0 Q 296 0 300 0 Q 304 0 308 0 Q 312 0 316 0 Q 320 0 324 0 Q 328 0 332 0 Q 336 0 340 0 Q 344 0 348 0 Q 352 0 356 0 Q 360 0 364 0 Q 368 0 372 0 Q 376 0 380 0 Q 384 0 388 0 Q 392 0 396 0 Q 400 0 404 0 Q 408 0 412 0 Q 416 0 420 0 Q 424 0 428 0 Q 432 0 436 0 Q 440 0 444 0 Q 448 0 452 0 Q 456 0 460 0 Q 464 0 468 0 Q 472 0 476 0 Q 480 0 484 0 Q 488 0 492 0 Q 496 0 500 0 Q 504 0 508 0 Q 512 0 516 0 Q 520 0 524 0 Q 528 0 532 0 Q 536 0 540 0 Q 544 0 548 0 Q 552 0 556 0 Q 560 0 564 0 Q 568 0 572 0 Q 576 0 580 0 Q 584 0 588 0 Q 592 0 596 0 Q 600 0 604 0 Q 608 0 612 0 Q 616 0 620 0 Q 624 0 628 0 Q 632 0 636 0 Q 640 0 644 0 Q 648 0 652 0 Q 656 0 660 0 Q 664 0 668 0 Q 672 0 676 0 Q 680 0 684 0 Q 688 0 692 0 Q 696 0 700 0 Q 704 0 708 0 Q 712 0 716 0 Q 720 0 724 0 Q 728 0 732 0 Q 736 0 740 0 Q 744 0 748 0 Q 752 0 756 0 Q 760 0 764 0 Q 768 0 772 0 Q 776 0 780 0 Q 784 0 788 0 Q 792 0 796 0 Q 800 0 804 0 Q 808 0 812 0 Q 816 0 820 0 Q 824 0 828 0 Q 832 0 836 0 Q 840 0 844 0 Q 848 0 852 1 Q 856 2 860 2 Q 864 2 868 3 Q 872 4 876 5 Q 880 6 884 7 Q 888 8 892 8 Q 896 8 900 9 Q 904 10 908 11 Q 912 12 916 13 Q 920 14 924 16 Q 928 18 932 19 Q 936 20 940 21 Q 944 22 948 23 Q 952 24 956 26 Q 960 28 964 30 Q 968 32 972 33 Q 976 34 980 36 Q 984 38 988 40 Q 992 42 996 44 Q 1000 46 1004 49 Q 1008 52 1012 54 Q 1016 56 1020 59 Q 1024 62 1028 66 Q 1032 70 1036 74 Q 1040 78 1044 85 Q 1048 92 1052 196 Q 1056 300 1060 300 Q 1064 300 1068 300 Q 1072 300 1076 300 Q 1080 300 1084 300 Q 1088 300 1092 300 Q 1096 300 1100 300 Q 1104 300 1108 300 Q 1112 300 1116 300 Q 1120 300 1124 300 Q 1128 300 1132 300 Q 1136 300 1140 300 Q 1144 300 1148 300 Q 1152 300 1156 300 Q 1160 300 1164 300 Q 1168 300 1172 300 Q 1176 300 1180 300 Q 1184 300 1188 300 Q 1192 300 1196 300 Q 1200 300 1204 300 Q 1208 300 1212 300 Q 1216 300 1220 300 Q 1224 300 1228 300 Q 1232 300 1236 300 Q 1240 300 1244 181 Q 1248 62 1252 54 Q 1256 46 1260 40 Q 1264 34 1268 29 Q 1272 24 1276 19 Q 1280 14 1284 10 Q 1288 6 1292 3 Q 1296 0 1300 0 Q 1304 0 1308 0 Q 1312 0 1316 0 Q 1320 0 1324 0 Q 1328 0 1332 0 Q 1336 0 1340 0 Q 1344 0 1348 0 Q 1352 0 1356 0 Q 1360 0 1364 0 Q 1368 0 1372 0 Q 1376 0 1380 0 Q 1384 0 1388 0 Q 1392 0 1396 0 Q 1400 0 1404 0 Q 1408 0 1412 0 Q 1416 0 1420 0 Q 1424 0 1428 0 Q 1432 0 1436 0 Q 1440 0 1444 0 Q 1448 0 1452 0 Q 1456 0 1460 0 Q 1464 0 1468 0 Q 1472 0 1476 0 Q 1480 0 1484 0 Q 1488 0 1492 0 Q 1496 0 1500 0 Q 1504 0 1508 0 Q 1512 0 1516 0 Q 1520 0 1524 0 Q 1528 0 1532 0 Q 1536 0 1540 0 Q 1544 0 1548 0 Q 1552 0 1556 0 Q 1560 0 1564 0 Q 1568 0 1572 0 Q 1576 0 1580 0 Q 1584 0 1588 0 Q 1592 0 1596 0 Q 1600 0 1604 0 Q 1608 0 1612 3 Q 1616 6 1620 18 Q 1624 30 1628 165 Q 1632 300 1636 300 Q 1640 300 1644 300 Q 1648 300 1652 300 Q 1656 300 1660 300 Q 1664 300 1668 300 Q 1672 300 1676 300 Q 1680 300 1684 300 Q 1688 300 1692 300 Q 1696 300 1700 300 Q 1704 300 1708 300 Q 1712 300 1716 300 Q 1720 300 1724 300 Q 1728 300 1732 300 Q 1736 300 1740 300 Q 1744 300 1748 300 Q 1752 300 1756 300 Q 1760 300 1764 300 Q 1768 300 1772 300 Q 1776 300 1780 300 Q 1784 300 1788 300 Q 1792 300 1796 300 Q 1800 300 1804 300 Q 1808 300 1812 300 Q 1816 300 1820 300 Q 1824 300 1828 300 Q 1832 300 1836 300 Q 1840 300 1844 300 Q 1848 300 1852 300 Q 1856 300 1860 300 Q 1864 300 1868 300 Q 1872 300 1876 300 Q 1880 300 1884 300 Q 1888 300 1892 300 Q 1896 300 1900 300 Q 1904 300 1908 300 Q 1912 300 1916 300 L 1920 300 L 1920 300 Z" fill="#beb7aa" />
</svg>
